<?xml version="1.0" encoding="UTF-8" standalone="no"?>
<svg
   inkscape:version="1.2.2 (b0a8486541, 2022-12-01)"
   sodipodi:docname="kyo_dot_sk_logo_vektorisiert_black.svg"
   xml:space="preserve"
   enable-background="new 0 0 99.334 47.062"
   viewBox="0 0 87.556382 28.601003"
   height="28.601004"
   width="87.556381"
   y="0px"
   x="0px"
   id="Ebene_1"
   version="1.1"
   xmlns:inkscape="http://www.inkscape.org/namespaces/inkscape"
   xmlns:sodipodi="http://sodipodi.sourceforge.net/DTD/sodipodi-0.dtd"
   xmlns="http://www.w3.org/2000/svg"
   xmlns:svg="http://www.w3.org/2000/svg"
   xmlns:rdf="http://www.w3.org/1999/02/22-rdf-syntax-ns#"
   xmlns:cc="http://creativecommons.org/ns#"
   xmlns:dc="http://purl.org/dc/elements/1.1/"><metadata
   id="metadata853"><rdf:RDF><cc:Work
       rdf:about=""><dc:format>image/svg+xml</dc:format><dc:type
         rdf:resource="http://purl.org/dc/dcmitype/StillImage" /></cc:Work></rdf:RDF></metadata><defs
   id="defs851">
	
</defs><sodipodi:namedview
   inkscape:current-layer="Ebene_1"
   inkscape:window-maximized="1"
   inkscape:window-y="0"
   inkscape:window-x="0"
   inkscape:cy="2.8357993"
   inkscape:cx="62.063494"
   inkscape:zoom="6.1710996"
   showgrid="false"
   id="namedview849"
   inkscape:window-height="1011"
   inkscape:window-width="1878"
   inkscape:pageshadow="2"
   inkscape:pageopacity="0"
   guidetolerance="10"
   gridtolerance="10"
   objecttolerance="10"
   borderopacity="1"
   bordercolor="#666666"
   pagecolor="#ffffff"
   inkscape:showpageshadow="2"
   inkscape:pagecheckerboard="0"
   inkscape:deskcolor="#d1d1d1" />

<path
   id="rect315"
   style="fill:#2b0000;stroke-width:0.999992"
   d="m 44.388809,20.999147 4.276896,-0.638949 -2.17602,3.93936 -4.276896,0.638949 z m -7.37381,-15.4911433 -0.321001,-0.2029999 -3.767999,1.2709997 -3.075,5.7209995 -5.64,1.979001 2.607999,-4.9570004 -0.432999,-0.1969996 -3.682,1.369 -4.367001,8.641 0.047,0.285 9.317001,-3.164001 -0.775001,1.912001 -10.622,3.798 -1.847999,3.753999 14.635,-5.066 z m 8.985999,2.3079999 -6.163,2.2970004 -2.241,4.348 5.937001,-1.961 z m 6.575001,-5.3880001 -6.653001,12.9610005 -14.196999,4.845999 -0.306,-0.413999 6.496999,-12.5060005 14.261,-5.0569998 z m -30.887001,6.1870002 -0.714,-0.1250003 -4.282999,1.6090006 -6.557001,6.869 -0.9859994,0.411999 2.4880024,-4.666 -0.413,-0.234 -3.7790005,1.703 L 0,28.601004 l 3.9940004,-1.389001 2.6840005,-5.633 1.7469999,-0.540999 1.5599994,3.684 L 14.245,23.253003 12.678001,17.974004 Z M 69.64338,8.767 l 1.728,-3.6110005 -0.282,-0.2439998 -15.153001,4.3610005 -4.801005,8.6050008 0.450001,0.433999 9.965,-2.695 -0.558,0.98 -11.337,3.488 -1.776,3.799001 0.342,0.338 14.518999,-3.988 5.470001,-9.52 -0.465,-0.213 -10.243,2.993999 0.421995,-0.878999 z m 8.254999,-1.4200005 -0.756,0.4020002 -0.869999,0.2290002 3.264,-5.6840006 L 79.246379,2.1439994 74.11738,3.8169996 65.234379,19.608 l 0.385001,0.455 4.389999,-1.264 3.796001,-6.488 2.101999,-0.559 1.933001,4.67 5.249995,-1.283 L 80.632379,8.932 86.657384,3.6619986 87.556379,0 85.81038,0.46699912 Z" /></svg>
