<?xml version="1.0" encoding="UTF-8" standalone="no"?>
<svg
   inkscape:version="1.2.2 (b0a8486541, 2022-12-01)"
   sodipodi:docname="kyosky_logo_vektorisiert_black.svg"
   xml:space="preserve"
   enable-background="new 0 0 99.334 47.062"
   viewBox="0 0 103.49746 33.490871"
   height="33.490871"
   width="103.49746"
   y="0px"
   x="0px"
   id="Ebene_1"
   version="1.1"
   xmlns:inkscape="http://www.inkscape.org/namespaces/inkscape"
   xmlns:sodipodi="http://sodipodi.sourceforge.net/DTD/sodipodi-0.dtd"
   xmlns="http://www.w3.org/2000/svg"
   xmlns:svg="http://www.w3.org/2000/svg"
   xmlns:rdf="http://www.w3.org/1999/02/22-rdf-syntax-ns#"
   xmlns:cc="http://creativecommons.org/ns#"
   xmlns:dc="http://purl.org/dc/elements/1.1/"><metadata
   id="metadata853"><rdf:RDF><cc:Work
       rdf:about=""><dc:format>image/svg+xml</dc:format><dc:type
         rdf:resource="http://purl.org/dc/dcmitype/StillImage" /></cc:Work></rdf:RDF></metadata><defs
   id="defs851">
	
</defs><sodipodi:namedview
   inkscape:current-layer="Ebene_1"
   inkscape:window-maximized="1"
   inkscape:window-y="0"
   inkscape:window-x="0"
   inkscape:cy="21.876166"
   inkscape:cx="0"
   inkscape:zoom="3.0855498"
   showgrid="false"
   id="namedview849"
   inkscape:window-height="1011"
   inkscape:window-width="1878"
   inkscape:pageshadow="2"
   inkscape:pageopacity="0"
   guidetolerance="10"
   gridtolerance="10"
   objecttolerance="10"
   borderopacity="1"
   bordercolor="#666666"
   pagecolor="#ffffff"
   inkscape:showpageshadow="2"
   inkscape:pagecheckerboard="0"
   inkscape:deskcolor="#d1d1d1" />

<path
   id="path844-3"
   style="fill:#000000;fill-opacity:1"
   d="m 103.49746,0.203 -0.321,-0.203 -3.768,1.271 -3.075,5.7209996 -5.640003,1.979 2.607999,-4.957 -0.433,-0.197 -3.681999,1.369 -4.367004,8.6410014 0.047,0.285 9.317007,-3.164 -0.775004,1.912 -10.622003,3.798 -1.848,3.754 14.635007,-5.066 z M 37.015,10.397871 l -0.321,-0.203 -3.768,1.271 -3.075,5.721 -5.64,1.979 2.608,-4.957 -0.433,-0.197 -3.682,1.369 -4.367,8.641 0.047,0.285 9.317,-3.164 -0.775,1.912 -10.622,3.798 -1.848,3.754 14.635,-5.066 z m 8.986,2.308 -6.163,2.297 -2.241,4.348 5.937,-1.961 z m 6.575,-5.3880004 -6.653,12.9610004 -14.197,4.846 -0.306,-0.414 6.497,-12.506 14.261,-5.0570004 z m -30.887,6.1870004 -0.714,-0.125 -4.283,1.609 -6.557,6.869 -0.986,0.412 2.488,-4.666 -0.413,-0.234 -3.779,1.703 -7.445,14.418 3.994,-1.389 2.684,-5.633 1.747,-0.541 1.56,3.684 4.26,-1.469 -1.567,-5.279 z m 44.969196,0.655857 1.728,-3.611 -0.282,-0.244 -15.153,4.361 -4.801,8.605 0.45,0.434 9.965,-2.695 -0.558,0.98 -11.337,3.488 -1.776,3.799 0.342,0.338 14.519,-3.988 5.47,-9.52 -0.465,-0.213 -10.243,2.994 0.422,-0.879 z m 8.255,-1.42 -0.756,0.402 -0.87,0.229 3.264,-5.6840004 -0.29,-0.15 -5.129,1.673 -8.883,15.7910004 0.385,0.455 4.39,-1.264 3.796,-6.488 2.102,-0.559 1.933,4.67 5.25,-1.283 -2.458,-6.207 6.025,-5.2700004 0.899,-3.662 -1.746,0.467 z" /></svg>
